<svg width="119" height="25" viewBox="0 0 119 25" fill="none" xmlns="http://www.w3.org/2000/svg">
<path d="M15.392 17.44H6.112L3.776 24H0.64L9.248 1.28H12.256L20.864 24H17.728L15.392 17.44ZM14.496 14.88L11.328 6.016C11.1787 5.632 10.9973 5.056 10.784 4.288H10.72C10.5067 5.056 10.3253 5.632 10.176 6.016L7.008 14.88H14.496ZM42.7257 3.84H35.5898V24H32.5498V3.84H25.4138V1.28H42.7257V3.84ZM52.2313 1.28H55.2713V21.44H65.7673V24H52.2313V1.28ZM88.767 17.44H79.487L77.151 24H74.015L82.623 1.28H85.631L94.239 24H91.103L88.767 17.44ZM87.871 14.88L84.703 6.016C84.5537 5.632 84.3723 5.056 84.159 4.288H84.095C83.8817 5.056 83.7003 5.632 83.551 6.016L80.383 14.88H87.871ZM110.486 24.544C107.713 24.544 105.548 23.8827 103.99 22.56C102.433 21.216 101.558 19.4453 101.366 17.248L104.438 16.8C104.673 18.336 105.281 19.5947 106.262 20.576C107.265 21.5573 108.705 22.048 110.582 22.048C111.99 22.048 113.185 21.728 114.166 21.088C115.148 20.448 115.638 19.4667 115.638 18.144C115.638 16.8853 115.286 15.968 114.582 15.392C113.878 14.7947 112.79 14.3467 111.318 14.048L108.022 13.376C104.225 12.5867 102.326 10.496 102.326 7.104C102.326 5.84533 102.646 4.736 103.286 3.776C103.948 2.816 104.865 2.06933 106.038 1.536C107.233 1.00267 108.63 0.735998 110.23 0.735998C112.598 0.735998 114.54 1.28 116.054 2.368C117.569 3.456 118.433 5.06667 118.646 7.2L115.606 7.84C115.201 4.704 113.388 3.136 110.166 3.136C108.758 3.136 107.617 3.46667 106.742 4.128C105.889 4.78933 105.462 5.68533 105.462 6.816C105.462 7.904 105.761 8.75733 106.358 9.376C106.956 9.99467 107.894 10.4427 109.174 10.72L112.502 11.424C114.486 11.8293 116.022 12.5227 117.11 13.504C118.22 14.4853 118.774 15.936 118.774 17.856C118.774 19.072 118.465 20.192 117.846 21.216C117.249 22.2187 116.321 23.0293 115.062 23.648C113.825 24.2453 112.3 24.544 110.486 24.544Z" fill="#1F4258"/>
</svg>
