<?xml version="1.0" encoding="UTF-8"?>
<svg width="112px" height="112px" viewBox="0 0 112 112" version="1.1" xmlns="http://www.w3.org/2000/svg" xmlns:xlink="http://www.w3.org/1999/xlink">
    <title>Asia/Company/1-HealthData@1x</title>
    <defs>
        <polygon id="path-1" points="0.000441122556 0.406 97.0568651 0.406 97.0568651 97.9996 0.000441122556 97.9996"></polygon>
    </defs>
    <g id="Asia/Company/1-HealthData" stroke="none" stroke-width="1" fill="none" fill-rule="evenodd">
        <g id="Group-6" transform="translate(7.000000, 7.000000)">
            <g id="Group-3" transform="translate(0.000000, 0.594400)">
                <mask id="mask-2" fill="white">
                    <use xlink:href="#path-1"></use>
                </mask>
                <g id="Clip-2"></g>
                <path d="M6.1748,0.4056 C2.7548,0.4136 -0.0072,3.1936 0.000441122556,6.6156 L0.000441122556,89.6636 C-0.0352,93.5416 2.6408,96.9196 6.4248,97.7656 C6.6688,97.9096 6.9468,97.9896 7.2288,97.9996 L91.5188,97.9996 C94.6748,97.6656 97.0688,94.9976 97.0568651,91.8236 L97.0568651,29.7096 C97.0688,27.0776 95.4208,24.7236 92.9408,23.8376 L92.9408,18.9676 C92.9408,18.0416 92.1928,17.2936 91.2668,17.2936 L83.5208,17.2936 C82.9208,14.4416 80.4088,12.3976 77.4968,12.3896 L36.0788,12.3896 C34.5228,12.3796 33.2668,11.1156 33.2668,9.5616 L33.2668,6.6156 C33.2768,3.1936 30.5108,0.4136 27.0928,0.4056 L6.1748,0.4056 Z M4.8948,92.7916 C3.9328,91.8256 3.4088,90.5096 3.4388,89.1496 L3.4388,6.7076 C3.4388,5.1416 4.6988,3.8656 6.2648,3.8496 L27.1768,3.8496 C28.7428,3.8656 30.0048,5.1416 30.0048,6.7076 L30.0048,9.6516 C30.0048,13.0516 32.7588,15.8096 36.1608,15.8196 L77.5628,15.8196 C78.6268,15.8236 79.5948,16.4276 80.0728,17.3756 L12.8908,17.3756 C11.9668,17.3756 11.2168,18.1216 11.2168,19.0476 L11.2168,24.8316 L7.3188,24.8316 C6.3968,24.8316 5.6468,25.5796 5.6468,26.5036 L5.6468,93.4116 C5.3788,93.2296 5.1248,93.0236 4.8948,92.7916 L4.8948,92.7916 Z M14.5588,20.6596 L89.5768,20.6596 L89.5768,23.4656 L69.9728,23.4656 C69.6048,23.4656 69.2348,23.4996 68.8708,23.5656 L68.5188,23.6656 C68.2828,23.7156 68.0488,23.7816 67.8188,23.8636 L67.4328,24.0316 C67.2328,24.1256 67.0408,24.2296 66.8488,24.3456 L66.4648,24.5776 L66.2628,24.7116 L14.5588,24.7116 L14.5588,20.6596 Z M15.5988,93.0156 C15.5988,93.0156 15.5988,92.8496 15.7328,92.7816 C15.9008,92.4456 16.0348,92.0936 16.1688,91.7436 C16.1608,91.7116 16.1608,91.6756 16.1688,91.6456 C16.2948,91.2676 16.3928,90.8816 16.4528,90.4896 L16.4528,90.2036 C16.5468,89.8096 16.6088,89.4056 16.6368,88.9996 L16.6368,41.5776 C16.6728,40.0376 17.9248,38.8016 19.4648,38.7836 L60.8848,38.7836 C64.2928,38.7736 67.0508,36.0156 67.0608,32.6096 L67.0608,29.5956 C67.0628,28.8156 67.3828,28.0636 67.9488,27.5236 C68.4628,27.0196 69.1528,26.7396 69.8728,26.7376 L91.0428,26.7376 C92.5148,26.8756 93.6348,28.1176 93.6215121,29.5956 L93.6215121,91.1436 C93.6528,92.5816 92.6028,93.8176 91.1768,94.0196 L14.9628,94.0196 C15.2008,93.6996 15.4128,93.3656 15.5988,93.0156 L15.5988,93.0156 Z M8.8968,28.1556 L64.0988,28.1556 C64.0908,28.2396 64.0908,28.3216 64.0988,28.4056 L63.9988,28.6556 C63.9248,29.0196 63.8848,29.3896 63.8808,29.7576 L63.8808,32.7016 C63.9188,34.2616 62.6808,35.5556 61.1168,35.5916 C61.0928,35.5936 61.0708,35.5936 61.0488,35.5936 L19.5728,35.5936 C16.1748,35.6036 13.4168,38.3396 13.3888,41.7296 L13.3888,89.1236 C13.4008,90.5796 12.7908,91.9716 11.7128,92.9516 C11.5068,93.1296 11.2888,93.2916 11.0588,93.4376 L10.8748,93.5356 C10.6968,93.6436 10.5128,93.7396 10.3208,93.8196 L10.1528,93.8196 C9.9528,93.8196 9.7348,93.9716 9.5168,94.0196 L9.3328,94.0196 L8.8968,94.0196 L8.8968,28.1556 Z" id="Fill-1" fill="#000080" mask="url(#mask-2)"></path>
            </g>
            <path d="M49.0936,51.459 C48.1656,51.459 47.4136,52.211 47.4136,53.139 L47.4136,60.265 L40.2896,60.265 C39.3616,60.265 38.6076,61.017 38.6076,61.945 L38.6076,71.825 C38.6076,72.753 39.3616,73.505 40.2896,73.505 L47.4136,73.505 L47.4136,80.613 C47.4136,81.541 48.1656,82.293 49.0936,82.293 L58.9576,82.293 C59.8856,82.293 60.6376,81.541 60.6376,80.613 L60.6376,73.505 L67.7616,73.505 C68.6916,73.505 69.4416,72.753 69.4416,71.825 L69.4416,61.945 C69.4416,61.017 68.6916,60.265 67.7616,60.265 L60.6376,60.265 L60.6376,53.139 C60.6376,52.211 59.8856,51.459 58.9576,51.459 L49.0936,51.459 Z M42.0356,63.723 L49.1196,63.723 C50.0436,63.723 50.7916,62.969 50.7916,62.041 L50.7916,54.909 L57.2596,54.909 L57.2596,62.041 C57.2596,62.969 58.0076,63.723 58.9296,63.723 L66.0156,63.723 L66.0156,70.249 L58.9296,70.249 C58.0076,70.249 57.2596,71.003 57.2596,71.931 L57.2596,79.047 L50.7916,79.047 L50.7916,71.931 C50.7916,71.003 50.0436,70.249 49.1196,70.249 L42.0356,70.249 L42.0356,63.723 Z" id="Fill-4" fill="#FF5F5A"></path>
        </g>
    </g>
</svg>