<?xml version="1.0" encoding="UTF-8"?>
<svg width="512px" height="512px" viewBox="0 0 512 512" version="1.1"
    xmlns="http://www.w3.org/2000/svg" xmlns:xlink="http://www.w3.org/1999/xlink">
    <title>Group</title>
    <g id="Symbols" stroke="none" stroke-width="1" fill="none" fill-rule="evenodd">
        <g id="Group">
            <rect id="Rectangle" x="0" y="0" width="512" height="512"></rect>
            <path
                d="M419.623479,362.228126 C419.623479,352.66339 414.953316,347.5548 406.959388,347.5548 C398.606882,347.5548 393.577796,353.498358 393.397469,363.064526 L419.623479,363.064526 L419.623479,362.228126 Z M426,368.358147 L393.397469,368.358147 C393.48746,378.852337 399.056489,385.259726 407.768265,385.259726 C414.054449,385.259726 418.545669,381.638547 420.430971,375.323495 L425.731067,377.551389 C422.946552,386.189179 416.389704,391 407.318658,391 C394.565615,391 387.110939,382.566926 387.110939,366.965221 C387.110939,351.733937 394.655606,342.35459 407.049379,342.35459 C419.083882,342.35459 426,349.784126 426,363.899495 L426,368.358147 Z M382.032357,348.854674 L370.357124,348.854674 L370.357124,389.925242 L364.159546,389.925242 L364.159546,348.854674 L355.897377,348.854674 L355.897377,343.469074 L364.159546,343.469074 L364.159546,336.749242 C364.159546,328.390968 368.920045,323.000358 376.733646,323.000358 C378.70963,323.000358 380.50598,323.1904 382.032357,323.653874 L382.032357,329.225937 C380.50598,328.947853 378.978564,328.762463 377.542522,328.762463 C372.512052,328.762463 370.357124,331.548316 370.357124,337.584211 L370.357124,343.469074 L382.032357,343.469074 L382.032357,348.854674 Z M338.764218,389.925242 L344.960412,389.925242 L344.960412,343.469074 L338.764218,343.469074 L338.764218,389.925242 Z M347.165873,328.484021 C347.165873,331.512526 344.791161,333.967684 341.862315,333.967684 C338.933123,333.967684 336.558758,331.512526 336.558758,328.484021 C336.558758,325.455158 338.933123,323 341.862315,323 C344.791161,323 347.165873,325.455158 347.165873,328.484021 L347.165873,328.484021 Z M315.444903,389.925242 L321.641097,389.925242 L321.641097,324.073684 L315.444903,324.073684 L315.444903,389.925242 Z M290.22748,331.587684 L290.048537,331.587684 C288.970381,334.280126 287.636444,336.596063 285.749759,339.475326 L271.55929,360.556758 C269.583652,363.714463 268.236217,365.664274 266.529858,367.615158 L290.048537,367.615158 L290.048537,340.776274 C290.048537,336.410674 290.048537,334.558568 290.22748,331.587684 L290.22748,331.587684 Z M296.244731,373.001116 L296.244731,389.925242 L290.048537,389.925242 L290.048537,373.001116 L259.863636,373.001116 L259.863636,368.265095 L289.60966,324.073684 L296.244731,324.073684 L296.244731,367.615158 L304.5069,367.615158 L304.5069,373.001116 L296.244731,373.001116 Z M244.502744,369.658021 L244.502744,366.685705 L231.749701,368.543179 C224.114697,369.658021 220.79197,372.350821 220.79197,377.459411 C220.79197,382.473516 224.564303,385.631221 230.581555,385.631221 C238.933714,385.631221 244.502744,379.131137 244.502744,369.658021 L244.502744,369.658021 Z M214.235121,377.6448 C214.235121,373.187221 216.121807,369.564968 219.71416,367.243663 C222.947935,365.292421 227.348818,363.992905 234.444225,363.064526 L244.412753,361.856632 L244.412753,361.113642 C244.412753,351.548905 241.180017,347.741263 233.545012,347.741263 C226.809221,347.741263 222.677618,351.362442 222.319386,357.955937 L215.58221,357.955937 C216.121807,348.3912 223.126878,342.354232 233.456406,342.354232 C245.490909,342.354232 250.700322,348.112758 250.700322,361.578547 L250.700322,373.650695 C250.700322,380.895558 251.148544,386.117242 252.136364,389.924884 L245.5809,389.924884 C245.131293,387.417116 244.86236,384.052905 244.772023,380.617116 C242.617096,387.117558 236.869124,391 229.144129,391 C220.16342,391 214.235121,385.631221 214.235121,377.6448 L214.235121,377.6448 Z M181.686931,343.472653 L189.950484,343.472653 L189.950484,327.752842 L196.237015,327.752842 L196.237015,343.472653 L207.823296,343.472653 L207.823296,348.858253 L196.237015,348.858253 L196.237015,376.72 C196.237015,382.19901 198.571923,384.613368 203.242086,384.613368 C205.038781,384.613368 206.295534,384.428337 207.823296,384.056842 L207.823296,389.90699 C205.936264,390.463874 204.140953,390.74339 201.625717,390.74339 C192.913942,390.74339 189.950484,385.263305 189.950484,376.998442 L189.950484,348.858253 L181.686931,348.858253 L181.686931,343.472653 Z M168.206003,369.658021 L168.206003,366.685705 L155.452615,368.543179 C147.817956,369.658021 144.495229,372.350821 144.495229,377.459411 C144.495229,382.473516 148.267563,385.631221 154.284814,385.631221 C162.636974,385.631221 168.206003,379.131137 168.206003,369.658021 L168.206003,369.658021 Z M137.938035,377.6448 C137.938035,373.187221 139.825067,369.564968 143.417073,367.243663 C146.651194,365.292421 151.052078,363.992905 158.147139,363.064526 L168.115667,361.856632 L168.115667,361.113642 C168.115667,351.548905 164.883276,347.741263 157.248272,347.741263 C150.512481,347.741263 146.380877,351.362442 146.022645,357.955937 L139.28547,357.955937 C139.825067,348.3912 146.830137,342.354232 157.159319,342.354232 C169.193822,342.354232 174.403582,348.112758 174.403582,361.578547 L174.403582,373.650695 C174.403582,380.895558 174.851804,386.117242 175.839623,389.924884 L169.283813,389.924884 C168.834552,387.417116 168.565273,384.052905 168.475283,380.617116 C166.320356,387.117558 160.572384,391 152.847389,391 C143.86668,391 137.938035,385.631221 137.938035,377.6448 L137.938035,377.6448 Z M119.411753,367.707137 L119.411753,365.757326 C119.411753,355.169726 114.471273,348.112758 106.118768,348.112758 C97.6766174,348.112758 92.6471851,355.077747 92.6471851,366.685705 C92.6471851,378.201326 97.6766174,385.259726 106.028777,385.259726 C114.292331,385.259726 119.411753,378.016295 119.411753,367.707137 L119.411753,367.707137 Z M86,366.685705 C86,352.383874 93.813947,342.354232 105.221285,342.354232 C111.687797,342.354232 116.627239,345.418884 119.321417,351.9204 L119.321417,324.073684 L125.607947,324.073684 L125.607947,389.924884 L119.680686,389.924884 L119.680686,380.059158 C117.076499,386.931095 111.687797,391 104.502399,391 C93.3657249,391 86,381.174 86,366.685705 L86,366.685705 Z M241.5,206 L298,125 L241.5,125 L185,206 L241.5,206 Z M272,220 C257.64072,220 246,231.64072 246,246 C246,260.359627 257.64072,272 272,272 C286.35928,272 298,260.359627 298,246 C298,231.64072 286.35928,220 272,220 L272,220 Z M377.636364,227.861413 L377.636364,126 L331,126 L331,272 L426,272 L426,227.861413 L377.636364,227.861413 Z M86,121 C125.764291,121 158,154.80238 158,196.5 C158,238.197277 125.764291,272 86,272 L86,121 Z"
                id="Combined-Shape-Copy" fill="#000080"></path>
        </g>
    </g>
</svg>