<?xml version="1.0" encoding="UTF-8"?>
<svg id="Layer_1" xmlns="http://www.w3.org/2000/svg" version="1.1" viewBox="0 0 563.53 152.92">
  <!-- Generator: Adobe Illustrator 29.2.1, SVG Export Plug-In . SVG Version: 2.1.0 Build 116)  -->
  <defs>
    <style>
      .st0 {
        fill: none;
      }

      .st1 {
        fill: navy;
      }
    </style>
  </defs>
  <path class="st1" d="M96.71,87.08c-4.69,0-8.53,3.8-8.53,8.53s3.8,8.53,8.53,8.53,8.53-3.8,8.53-8.53-3.84-8.53-8.53-8.53Z"/>
  <path class="st1" d="M527.3,87.08c-4.69,0-8.53,3.8-8.53,8.53s3.8,8.53,8.53,8.53,8.53-3.8,8.53-8.53-3.84-8.53-8.53-8.53Z"/>
  <polygon class="st1" points="81.4 70.45 59.38 103.52 77.33 103.52 99.35 70.45 81.4 70.45"/>
  <path class="st1" d="M27.7,48.78v55.36c15.27,0,27.7-12.34,27.7-27.66s-12.43-27.7-27.7-27.7Z"/>
  <polygon class="st1" points="127.43 49.4 114.71 49.4 114.71 103.52 149.34 103.52 149.34 87.13 131.72 87.13 131.72 79.53 139.57 79.53 144.67 71.94 131.72 71.94 131.72 64.35 149.34 64.35 149.34 49.4 131.72 49.4 127.43 49.4"/>
  <path class="st1" d="M99.43,66.84c0-9.95-8.07-18.05-18.05-18.06-9.98,0-18.05,8.11-18.05,18.06h36.1Z"/>
  <path class="st1" d="M184.89,74.15c-2.25-1.31-4.86-1.96-7.83-1.96h-10.28v31.33h10.19c3,0,5.63-.67,7.88-2.01,2.25-1.34,3.99-3.2,5.23-5.58s1.85-5.09,1.85-8.12-.61-5.81-1.83-8.17c-1.22-2.35-2.96-4.18-5.21-5.49ZM186.21,93.98c-.84,1.85-2.06,3.32-3.66,4.39-1.6,1.07-3.49,1.61-5.67,1.61h-5.91v-24.27h6c2.21,0,4.1.52,5.67,1.54,1.57,1.03,2.77,2.46,3.6,4.28.82,1.83,1.24,3.91,1.24,6.27s-.42,4.33-1.26,6.18Z"/>
  <path class="st1" d="M205.78,72.18l-11.87,31.33h4.32l3.22-9.05h12.8l3.22,9.05h4.32l-11.87-31.33h-4.15ZM202.69,90.94l4.37-12.22c.21-.53.46-1.32.75-2.38h.09c.29,1.06.54,1.85.75,2.38l4.37,12.22h-10.33Z"/>
  <polygon class="st1" points="243.69 72.18 219.82 72.18 219.82 75.71 229.66 75.71 229.66 103.52 233.85 103.52 233.85 75.71 243.69 75.71 243.69 72.18"/>
  <path class="st1" d="M253.58,72.18l-11.87,31.33h4.32l3.22-9.05h12.8l3.22,9.05h4.32l-11.87-31.33h-4.15ZM250.49,90.94l4.37-12.22c.21-.53.46-1.32.75-2.38h.09c.29,1.06.54,1.85.75,2.38l4.37,12.22h-10.33Z"/>
  <path class="st1" d="M284.91,93.9c2.38-2.21,4.13-4.29,5.23-6.27,1.1-1.97,1.65-4.03,1.65-6.18,0-2.97-.84-5.26-2.52-6.86-1.68-1.6-4.02-2.41-7.02-2.41s-5.47.8-7.24,2.41c-1.77,1.6-2.65,3.77-2.65,6.51,0,.82.1,1.65.31,2.47l3.97.4c-.24-1.18-.35-2.12-.35-2.82,0-1.68.51-3.02,1.54-4.02,1.03-1,2.43-1.5,4.19-1.5s3.14.51,4.13,1.52c.99,1.01,1.48,2.46,1.48,4.35s-.38,3.47-1.15,4.94c-.77,1.47-2.12,3.15-4.06,5.03-3.38,3.24-6.86,6.16-10.42,8.78v3.27h20.12v-3.58h-14.78c2.68-1.85,5.19-3.87,7.55-6.05Z"/>
  <polygon class="st1" points="302.96 89.22 317.44 89.22 317.44 85.69 302.96 85.69 302.96 75.71 318.19 75.71 318.19 72.18 298.77 72.18 298.77 103.52 318.5 103.52 318.5 99.99 302.96 99.99 302.96 89.22"/>
  <path class="st1" d="M336.19,95.22c-.53,1.56-.91,2.97-1.15,4.24h-.18c-.24-1.26-.62-2.68-1.15-4.24l-7.5-23.04h-4.41l10.86,31.33h4.59l10.86-31.33h-4.41l-7.5,23.04Z"/>
  <rect class="st1" x="352.74" y="72.18" width="4.19" height="31.33"/>
  <path class="st1" d="M383.88,74.15c-2.25-1.31-4.86-1.96-7.83-1.96h-10.28v31.33h10.19c3,0,5.63-.67,7.88-2.01,2.25-1.34,3.99-3.2,5.23-5.58s1.85-5.09,1.85-8.12-.61-5.81-1.83-8.17c-1.22-2.35-2.96-4.18-5.21-5.49ZM385.2,93.98c-.84,1.85-2.06,3.32-3.66,4.39-1.6,1.07-3.49,1.61-5.67,1.61h-5.91v-24.27h6c2.21,0,4.1.52,5.67,1.54,1.57,1.03,2.77,2.46,3.6,4.28.82,1.83,1.24,3.91,1.24,6.27s-.42,4.33-1.26,6.18Z"/>
  <polygon class="st1" points="401.51 89.22 415.99 89.22 415.99 85.69 401.51 85.69 401.51 75.71 416.74 75.71 416.74 72.18 397.32 72.18 397.32 103.52 417.04 103.52 417.04 99.99 401.51 99.99 401.51 89.22"/>
  <path class="st1" d="M444.58,94.87c0,1.65.04,3.03.13,4.15h-.09c-.41-1.15-1.06-2.49-1.94-4.02l-13.28-22.82h-5.08v31.33h3.75v-22.68c0-1.68-.04-3.06-.13-4.15h.09c.35,1.03,1,2.37,1.94,4.02l13.28,22.82h5.08v-31.33h-3.75v22.68Z"/>
  <path class="st1" d="M468.77,75.01c2.38,0,4.29.71,5.72,2.12,1.43,1.41,2.3,3.33,2.63,5.74l4.28-.44c-.41-3.38-1.66-6.06-3.75-8.03-2.09-1.97-4.97-2.96-8.65-2.96-3.03,0-5.62.68-7.77,2.05-2.15,1.37-3.77,3.28-4.85,5.74-1.09,2.46-1.63,5.3-1.63,8.54s.51,5.92,1.54,8.41c1.03,2.49,2.6,4.46,4.72,5.91,2.12,1.46,4.74,2.18,7.86,2.18,3.56,0,6.38-.97,8.45-2.91,2.07-1.94,3.43-4.5,4.08-7.68l-4.06-.71c-.44,2.35-1.41,4.21-2.91,5.58s-3.35,2.05-5.56,2.05c-2.09,0-3.86-.55-5.32-1.65-1.46-1.1-2.55-2.63-3.29-4.59-.74-1.96-1.1-4.17-1.1-6.64,0-3.85.85-6.94,2.54-9.25,1.69-2.31,4.05-3.46,7.08-3.46Z"/>
  <polygon class="st1" points="492.2 89.22 506.68 89.22 506.68 85.69 492.2 85.69 492.2 75.71 507.43 75.71 507.43 72.18 488.01 72.18 488.01 103.52 507.74 103.52 507.74 99.99 492.2 99.99 492.2 89.22"/>
  <rect class="st0" width="563.53" height="152.92"/>
</svg>