<svg width="25" height="24" viewBox="0 0 25 24" xmlns="http://www.w3.org/2000/svg">
    <g fill="none" fill-rule="evenodd">
        <path d="M0 0h24v24H0z"/>
        <path d="M12.01 11.012a1 1 0 0 1 .992.883l.007.117v6.585l2.293-2.292a1 1 0 0 1 1.32-.083l.094.083a1 1 0 0 1 .083 1.32l-.083.094-4 4-.078.068-.034.029a1.03 1.03 0 0 1-.074.05l-.037.021c-.02.011-.04.022-.06.031l-.053.023a.988.988 0 0 1-.338.07h-.033l-.083-.003-.066-.007a1.083 1.083 0 0 1-.274-.083l-.061-.031-.037-.021a1.035 1.035 0 0 1-.186-.147l-4-4a1 1 0 0 1 1.32-1.497l.094.083 2.293 2.292v-6.585a1 1 0 0 1 1-1zm-1.98-8.953a9 9 0 0 1 7.437 5.888l.021.065h.52a6 6 0 0 1 5.646 3.956l.079.232a6 6 0 0 1-2.269 6.72 1 1 0 0 1-1.15-1.636 4 4 0 0 0-2.096-7.267l-.209-.005h-1.26a1 1 0 0 1-.969-.752 7 7 0 1 0-12.022 6.38 1 1 0 0 1-1.498 1.325 9 9 0 0 1 7.77-14.906z" fill="navy"/>
    </g>
</svg>
