<svg width="26" height="24" viewBox="0 0 26 24" xmlns="http://www.w3.org/2000/svg">
    <g fill="none" fill-rule="evenodd">
        <path d="M2 0h24v24H2z"/>
        <path d="M18 1a4 4 0 1 1-2.841 6.815L9.85 10.913a4.003 4.003 0 0 1 0 2.174l5.31 3.095a4 4 0 1 1-1.01 1.727l-5.31-3.094a4 4 0 1 1 0-5.63l5.309-3.097A4.003 4.003 0 0 1 18 1zm0 16c-.695 0-1.308.355-1.666.894a.77.77 0 0 1-.05.1l-.065.097-.033.066A2 2 0 1 0 18 17zM6 10a2 2 0 1 0 1.726 3.007l.024-.038c.16-.287.25-.618.25-.969a1.99 1.99 0 0 0-.274-1.006l-.007-.017A1.999 1.999 0 0 0 6 10zm12-7a2 2 0 0 0-1.75 2.969l.024.037.007.017A1.999 1.999 0 0 0 20 5a2 2 0 0 0-2-2z" fill="navy"/>
    </g>
</svg>
