<?xml version="1.0" encoding="UTF-8"?>
<svg id="Layer_1" data-name="Layer 1" xmlns="http://www.w3.org/2000/svg" viewBox="0 0 21.6 16.98">
  <path
    d="M16.45,13.83c0,.7-.68,1.39-1.77,1.39-1.16,0-1.73-.77-2.35-1.95l-1.75-3.32-2.93,4.64c-.23.38-.51.64-1.05.64-.68,0-1.01-.41-1.09-1.28.71-.21,1.16-.73,1.69-1.47l2.69-3.83-2.33-4.36c-.24-.45-.47-.68-.77-.68-.32,0-.54.26-.56.53-.38-.15-.66-.51-.66-1,0-.68.47-1.37,1.67-1.37s1.8.73,2.42,1.95l1.62,3.12,2.63-4.47c.21-.34.49-.62,1.03-.62.68,0,1.01.38,1.11,1.26-.73.24-1.24.79-1.69,1.47l-2.46,3.53,2.52,4.7c.24.43.53.68.81.68s.53-.26.54-.53c.36.15.68.51.68.98Z"
    fill="navy" />
  <g>
    <path d="M3.42,0v.98h-1.48v15.03h1.48v.98H0V0h3.42Z" fill="navy" />
    <path d="M21.6,16.98h-3.42v-.98h1.47V.98h-1.47v-.98h3.42v16.98Z" fill="navy" />
  </g>
</svg>